<svg id="图层_2" data-name="图层 2" xmlns="http://www.w3.org/2000/svg" xmlns:xlink="http://www.w3.org/1999/xlink" viewBox="0 0 400 400"><defs><style>.cls-1{fill:url(#未命名的渐变_102);}.cls-2{fill:url(#未命名的渐变_87);}.cls-3{fill:url(#未命名的渐变_84);}.cls-4{fill:#ff0;}</style><linearGradient id="未命名的渐变_102" x1="577.03" y1="509.03" x2="676.83" y2="336.18" gradientUnits="userSpaceOnUse"><stop offset="0" stop-color="#1c78ae"/><stop offset="1" stop-color="aqua"/></linearGradient><linearGradient id="未命名的渐变_87" x1="353.16" y1="380.25" x2="655.7" y2="380.25" gradientUnits="userSpaceOnUse"><stop offset="0" stop-color="aqua"/><stop offset="0.44" stop-color="#0ecbe4"/><stop offset="0.81" stop-color="#18a8d1"/><stop offset="1" stop-color="#1c9aca"/></linearGradient><linearGradient id="未命名的渐变_84" x1="649.57" y1="545.22" x2="447.63" y2="343.27" gradientUnits="userSpaceOnUse"><stop offset="0" stop-color="aqua"/><stop offset="0.63" stop-color="#1c9aca"/></linearGradient></defs><title>main</title><path class="cls-1" d="M603.16,480.25a100,100,0,0,1-97.47-77.57,150.1,150.1,0,0,0,184.6,123.14,199.43,199.43,0,0,0,62.87-145.57h-50A100,100,0,0,1,603.16,480.25Z" transform="translate(-353.16 -180.25)"/><path class="cls-2" d="M403.16,430.25a150,150,0,0,1,147.42-150l2.58,0q1.3,0,2.58,0a150.58,150.58,0,0,1,24.94,2.51l.93-.2L655.7,208.5q-7.89-4.71-16.21-8.71a199.12,199.12,0,0,0-86.33-19.54c-110.45,0-200,89.54-200,200s89.55,200,200,200A150,150,0,0,1,403.16,430.25Z" transform="translate(-353.16 -180.25)"/><path class="cls-3" d="M654,530.25A150,150,0,0,1,505.69,402.68a100.11,100.11,0,0,1,75-119.9,150,150,0,1,0-27.55,297.47,199.25,199.25,0,0,0,137.13-54.43,149.6,149.6,0,0,1-24.94,4C661.61,530.09,657.83,530.25,654,530.25Z" transform="translate(-353.16 -180.25)"/><path class="cls-4" d="M700.63,402.71h0l.09-.42h0Z" transform="translate(-353.16 -180.25)"/><path class="cls-4" d="M690.29,525.82l.06-.06-.06.06Z" transform="translate(-353.16 -180.25)"/><path class="cls-4" d="M690.35,525.76c1.19-1.11,2.35-2.24,3.51-3.38C692.7,523.52,691.54,524.65,690.35,525.76Z" transform="translate(-353.16 -180.25)"/></svg>